<mxfile host="drawio-plugin" modified="2022-10-04T00:43:02.542Z" agent="5.0 (Windows NT 6.2; Win64; x64) AppleWebKit/537.36 (KHTML, like Gecko) Chrome/98.0.4758.102 Safari/537.36" etag="uAj7JkpvgxNZbT1rY07f" version="15.5.4" type="embed"><diagram id="xmBSVYw1JP3wKj-kxSkg" name="第1頁"><mxGraphModel dx="1080" dy="734" grid="1" gridSize="10" guides="1" tooltips="1" connect="1" arrows="1" fold="1" page="1" pageScale="1" pageWidth="827" pageHeight="1169" math="0" shadow="0"><root><mxCell id="0"/><mxCell id="1" parent="0"/><mxCell id="nv5wzcRq8hS1RzMTs_R7-3" value="是" style="edgeStyle=orthogonalEdgeStyle;rounded=0;orthogonalLoop=1;jettySize=auto;html=1;fontSize=18;" parent="1" source="nv5wzcRq8hS1RzMTs_R7-1" target="nv5wzcRq8hS1RzMTs_R7-2" edge="1"><mxGeometry relative="1" as="geometry"/></mxCell><mxCell id="nv5wzcRq8hS1RzMTs_R7-6" style="edgeStyle=orthogonalEdgeStyle;rounded=0;orthogonalLoop=1;jettySize=auto;html=1;exitX=1;exitY=0.5;exitDx=0;exitDy=0;exitPerimeter=0;fontSize=18;" parent="1" source="nv5wzcRq8hS1RzMTs_R7-1" target="nv5wzcRq8hS1RzMTs_R7-5" edge="1"><mxGeometry relative="1" as="geometry"/></mxCell><mxCell id="nv5wzcRq8hS1RzMTs_R7-7" value="否" style="edgeLabel;html=1;align=center;verticalAlign=middle;resizable=0;points=[];fontSize=18;" parent="nv5wzcRq8hS1RzMTs_R7-6" vertex="1" connectable="0"><mxGeometry x="0.4095" relative="1" as="geometry"><mxPoint as="offset"/></mxGeometry></mxCell><mxCell id="nv5wzcRq8hS1RzMTs_R7-1" value="&lt;font style=&quot;font-size: 18px;&quot;&gt;下雨&lt;/font&gt;" style="strokeWidth=2;html=1;shape=mxgraph.flowchart.decision;whiteSpace=wrap;" parent="1" vertex="1"><mxGeometry x="40" y="40" width="160" height="80" as="geometry"/></mxCell><mxCell id="nv5wzcRq8hS1RzMTs_R7-2" value="帶傘" style="rounded=1;whiteSpace=wrap;html=1;absoluteArcSize=1;arcSize=14;strokeWidth=2;fontSize=18;" parent="1" vertex="1"><mxGeometry x="40" y="170" width="160" height="60" as="geometry"/></mxCell><mxCell id="nv5wzcRq8hS1RzMTs_R7-5" value="帶帽子" style="rounded=1;whiteSpace=wrap;html=1;absoluteArcSize=1;arcSize=14;strokeWidth=2;fontSize=18;" parent="1" vertex="1"><mxGeometry x="240" y="170" width="160" height="60" as="geometry"/></mxCell><mxCell id="nv5wzcRq8hS1RzMTs_R7-8" value="是" style="edgeStyle=orthogonalEdgeStyle;rounded=0;orthogonalLoop=1;jettySize=auto;html=1;fontSize=18;" parent="1" source="nv5wzcRq8hS1RzMTs_R7-11" target="nv5wzcRq8hS1RzMTs_R7-12" edge="1"><mxGeometry relative="1" as="geometry"/></mxCell><mxCell id="nv5wzcRq8hS1RzMTs_R7-9" style="edgeStyle=orthogonalEdgeStyle;rounded=0;orthogonalLoop=1;jettySize=auto;html=1;exitX=1;exitY=0.5;exitDx=0;exitDy=0;exitPerimeter=0;fontSize=18;" parent="1" source="nv5wzcRq8hS1RzMTs_R7-11" target="nv5wzcRq8hS1RzMTs_R7-13" edge="1"><mxGeometry relative="1" as="geometry"/></mxCell><mxCell id="nv5wzcRq8hS1RzMTs_R7-10" value="否" style="edgeLabel;html=1;align=center;verticalAlign=middle;resizable=0;points=[];fontSize=18;" parent="nv5wzcRq8hS1RzMTs_R7-9" vertex="1" connectable="0"><mxGeometry x="0.4095" relative="1" as="geometry"><mxPoint as="offset"/></mxGeometry></mxCell><mxCell id="nv5wzcRq8hS1RzMTs_R7-11" value="&lt;font style=&quot;font-size: 18px;&quot;&gt;金額 &amp;gt; $10,000&lt;/font&gt;" style="strokeWidth=2;html=1;shape=mxgraph.flowchart.decision;whiteSpace=wrap;" parent="1" vertex="1"><mxGeometry x="40" y="280" width="160" height="80" as="geometry"/></mxCell><mxCell id="nv5wzcRq8hS1RzMTs_R7-12" value="打8折" style="rounded=1;whiteSpace=wrap;html=1;absoluteArcSize=1;arcSize=14;strokeWidth=2;fontSize=18;" parent="1" vertex="1"><mxGeometry x="40" y="410" width="160" height="60" as="geometry"/></mxCell><mxCell id="nv5wzcRq8hS1RzMTs_R7-13" value="不打折" style="rounded=1;whiteSpace=wrap;html=1;absoluteArcSize=1;arcSize=14;strokeWidth=2;fontSize=18;" parent="1" vertex="1"><mxGeometry x="240" y="410" width="160" height="60" as="geometry"/></mxCell><mxCell id="nv5wzcRq8hS1RzMTs_R7-15" value="是" style="edgeStyle=orthogonalEdgeStyle;rounded=0;orthogonalLoop=1;jettySize=auto;html=1;fontSize=18;" parent="1" source="nv5wzcRq8hS1RzMTs_R7-18" target="nv5wzcRq8hS1RzMTs_R7-19" edge="1"><mxGeometry relative="1" as="geometry"/></mxCell><mxCell id="nv5wzcRq8hS1RzMTs_R7-16" style="edgeStyle=orthogonalEdgeStyle;rounded=0;orthogonalLoop=1;jettySize=auto;html=1;exitX=1;exitY=0.5;exitDx=0;exitDy=0;exitPerimeter=0;fontSize=18;" parent="1" source="nv5wzcRq8hS1RzMTs_R7-18" target="nv5wzcRq8hS1RzMTs_R7-20" edge="1"><mxGeometry relative="1" as="geometry"/></mxCell><mxCell id="nv5wzcRq8hS1RzMTs_R7-17" value="否" style="edgeLabel;html=1;align=center;verticalAlign=middle;resizable=0;points=[];fontSize=18;" parent="nv5wzcRq8hS1RzMTs_R7-16" vertex="1" connectable="0"><mxGeometry x="0.4095" relative="1" as="geometry"><mxPoint as="offset"/></mxGeometry></mxCell><mxCell id="nv5wzcRq8hS1RzMTs_R7-18" value="&lt;font style=&quot;font-size: 18px;&quot;&gt;感冒&lt;/font&gt;" style="strokeWidth=2;html=1;shape=mxgraph.flowchart.decision;whiteSpace=wrap;" parent="1" vertex="1"><mxGeometry x="440" y="40" width="160" height="80" as="geometry"/></mxCell><mxCell id="nv5wzcRq8hS1RzMTs_R7-19" value="多休息" style="rounded=1;whiteSpace=wrap;html=1;absoluteArcSize=1;arcSize=14;strokeWidth=2;fontSize=18;" parent="1" vertex="1"><mxGeometry x="440" y="170" width="160" height="60" as="geometry"/></mxCell><mxCell id="nv5wzcRq8hS1RzMTs_R7-20" value="去運動" style="rounded=1;whiteSpace=wrap;html=1;absoluteArcSize=1;arcSize=14;strokeWidth=2;fontSize=18;" parent="1" vertex="1"><mxGeometry x="640" y="170" width="160" height="60" as="geometry"/></mxCell></root></mxGraphModel></diagram></mxfile>